<?xml version="1.0" standalone="no"?>
<!DOCTYPE svg PUBLIC "-//W3C//DTD SVG 20010904//EN"
 "http://www.w3.org/TR/2001/REC-SVG-20010904/DTD/svg10.dtd">
<svg version="1.0" xmlns="http://www.w3.org/2000/svg"
 width="300.000000pt" height="182.000000pt" viewBox="0 0 300.000000 182.000000"
 preserveAspectRatio="xMidYMid meet">
<metadata>
Created by potrace 1.10, written by Peter Selinger 2001-2011
</metadata>
<g transform="translate(0.000000,182.000000) scale(0.100000,-0.100000)"
fill="#000000" stroke="none">
<path d="M1629 1796 c-80 -23 -151 -69 -230 -146 -121 -120 -179 -256 -179
-420 l0 -75 -118 0 c-111 0 -121 -2 -179 -30 l-61 -30 -4 125 c-3 79 -11 138
-20 160 -54 126 -265 196 -483 160 -173 -28 -286 -117 -309 -242 -26 -144 136
-252 243 -162 29 24 50 69 71 152 15 57 41 82 85 82 78 0 120 -50 120 -143 0
-59 -15 -74 -113 -111 -281 -106 -286 -109 -338 -158 -108 -102 -141 -258 -81
-380 33 -68 81 -111 157 -139 46 -18 71 -20 153 -17 87 4 105 9 170 41 l72 36
20 -24 c11 -14 37 -32 57 -40 l38 -15 0 -139 c0 -159 5 -192 31 -220 31 -34
67 -37 115 -12 l42 23 69 -28 c250 -101 510 33 563 290 14 70 7 133 -25 202
-34 77 -86 122 -204 179 -221 106 -266 131 -285 158 -19 26 -19 30 -5 55 22
40 80 57 147 42 50 -11 56 -16 92 -71 21 -32 46 -82 56 -109 10 -28 29 -60 42
-72 29 -28 92 -30 120 -5 18 17 21 16 73 -7 147 -67 360 -55 504 30 47 27 111
85 143 129 l21 30 1 -115 c0 -63 -3 -138 -6 -167 l-7 -51 -45 -7 c-63 -9 -107
-53 -98 -98 4 -18 18 -43 31 -57 25 -25 27 -25 233 -28 236 -4 260 -1 302 34
60 51 30 137 -53 151 -32 5 -37 10 -43 40 -4 19 -4 132 -2 251 5 243 11 272
80 345 49 51 71 49 109 -13 36 -59 71 -80 131 -80 92 0 158 72 158 172 0 211
-245 294 -436 149 l-52 -39 -6 30 c-3 17 -6 42 -6 55 l0 25 -143 -7 -144 -7
-28 58 c-42 87 -144 185 -240 230 -67 33 -87 37 -168 40 -57 2 -110 -2 -138
-10z m202 -197 c36 -25 68 -90 69 -136 0 -27 -4 -32 -32 -39 -36 -8 -287 -8
-296 0 -11 11 32 101 67 139 63 70 127 82 192 36z m375 -154 c8 -34 4 -37 -56
-43 -39 -4 -50 -8 -50 -22 0 -14 11 -20 48 -25 67 -9 77 -16 65 -51 -7 -20
-16 -28 -29 -26 -93 15 -110 21 -131 46 -58 68 -2 145 104 146 37 0 43 -3 49
-25z m-12 -287 c3 -50 6 -113 6 -140 l0 -50 -31 26 c-48 40 -84 35 -157 -23
-75 -61 -140 -86 -212 -85 -131 2 -235 116 -248 270 l-5 62 289 7 c159 3 300
10 314 15 14 5 28 9 31 9 3 1 9 -40 13 -91z m-913 -35 c33 -13 46 -14 60 -5
33 21 73 14 102 -16 25 -26 28 -38 38 -159 11 -123 7 -203 -9 -203 -4 0 -17 8
-28 18 -20 15 -22 30 -27 150 -6 151 -16 176 -53 141 -26 -24 -49 -22 -101 11
-26 15 -33 27 -33 50 0 35 -2 35 51 13z m-421 -80 c0 -16 -13 -54 -29 -87 -39
-78 -47 -140 -27 -209 15 -51 70 -135 90 -136 5 -1 37 -15 72 -32 64 -32 73
-44 54 -79 -9 -18 -15 -16 -88 22 -95 50 -154 105 -183 171 -18 43 -21 65 -17
141 5 97 21 142 73 205 33 39 55 40 55 4z m-293 -181 c-9 -141 -47 -206 -137
-233 -33 -10 -43 -9 -65 5 -59 39 -67 126 -17 185 29 33 185 131 210 131 13 0
14 -14 9 -88z m284 -371 c16 -16 29 -36 29 -44 0 -20 -60 -29 -67 -10 -7 18
-39 17 -47 -2 -3 -9 -18 -15 -36 -15 -39 0 -40 26 -4 69 35 42 84 43 125 2z
m313 -90 c58 -40 76 -67 76 -112 0 -29 -7 -43 -30 -62 -90 -76 -213 -20 -290
133 -16 33 -30 61 -30 64 0 2 19 8 43 14 23 6 51 18 62 25 17 13 25 12 72 -8
29 -13 73 -38 97 -54z"/>
</g>
</svg>
